<svg xmlns="http://www.w3.org/2000/svg" version="1.1" xmlns:xlink="http://www.w3.org/1999/xlink" xmlns:svgjs="http://svgjs.dev/svgjs" width="1000" height="904" viewBox="0 0 1000 904"><g transform="matrix(1,0,0,1,-0.7081737310307972,0.366667750727629)"><svg viewBox="0 0 273 247" data-background-color="#ffffff" preserveAspectRatio="xMidYMid meet" height="904" width="1000" xmlns="http://www.w3.org/2000/svg" xmlns:xlink="http://www.w3.org/1999/xlink"><g id="tight-bounds" transform="matrix(1,0,0,1,0.19333142857141183,-0.09997365579206985)"><svg viewBox="0 0 272.6133371428572 247.2" height="247.2" width="272.6133371428572"><g><svg viewBox="0 0 272.6133371428572 247.2" height="247.2" width="272.6133371428572"><g><svg viewBox="0 0 272.6133371428572 247.2" height="247.2" width="272.6133371428572"><g id="textblocktransform"><svg viewBox="0 0 272.6133371428572 247.2" height="247.2" width="272.6133371428572" id="textblock"><g><svg viewBox="0 0 272.6133371428572 247.2" height="247.2" width="272.6133371428572"><path d="M271.975 53.02C270.693 27.36 267.041 20.227 267.041 20.227 255.827-6.202 241.832-0.506 229.259 3.292 207.061 3.446 184.954 9.091 162.807 12.119 116.323 12.581 69.442 4.986 23.188 23.717 18.844 29.464-4.507 24.846 0.773 56.304 2.157 69.39 7.207 83.913 7.053 95.922 7.745 98.026 8.706 93.202 9.116 96.23 10.552 104.39 12.897 100.541 14.819 105.365 12.141 118.246 14.063 128.971 15.896 140.21 12.666 143.135 8.527 141.749 6.668 151.449 6.476 158.479 5.438 157.145 4.297 156.837 3.464 156.632 1.785 157.402 2.067 159.608 3.028 167.152-1.098 171.514 1.491 178.904-0.291 186.91 2.721 193.838 2.311 202.511 2.259 204.255 2.541 205.744 2.99 206.154 4.977 208.361 2.08 212.672 2.388 217.342 22.765 249.262 44.873 227.195 65.751 241.872 71.172 231.608 67.096 245.516 69.262 243.36 70.954 240.846 72.184 251.263 74.094 245.362 74.389 243.668 73.94 239.665 74.991 240.435 75.542 240.846 76.029 240.743 76.106 238.382 76.221 234.841 75.209 237.048 74.94 235.201 77.849 225.861 77.131 248.081 79.861 247.158 79.733 244.438 78.938 240.538 80.566 241.051 82.181 237.151 82.232 233.918 83.668 242.693 83.719 244.592 83.975 245.926 84.385 246.85 88.871 237.305 93.331 250.237 98.034 245.926 100.918 241.205 103.686 248.492 106.608 246.696 107.634 245.259 108.672 242.693 109.659 247.004 121.744 247.928 134.625 244.079 146.082 247.158 176.7 241.41 209.42 249.518 241.703 241.923 249.316 238.998 257.224 234.841 264.644 231.506 264.644 231.506 270.655 222.371 270.655 181.316S271.937 145.393 272.129 112.703C272.321 80.013 273.218 78.679 271.937 53.02Z" opacity="1" fill="#085f63" data-fill-palette-color="tertiary"></path><g transform="matrix(1,0,0,1,55.76832000000002,26.230666666666668)"><svg width="161.07669714285714" viewBox="0.20000000298023224 -35 28.94999885559082 35" height="194.73866666666666" data-palette-color="#ffffff"><path d="M12.2 0L12.2-30.65 0.2-30.65 0.2-35 29.15-35 29.15-30.65 17.15-30.65 17.15 0 12.2 0Z" opacity="1" transform="matrix(1,0,0,1,0,0)" fill="#ffffff" class="undefined-text-0" data-fill-palette-color="quaternary" id="text-0"></path></svg></g></svg></g></svg></g></svg></g><g></g></svg></g><defs></defs></svg><rect width="272.6133371428572" height="247.2" fill="none" stroke="none" visibility="hidden"></rect></g></svg></g></svg>